<svg width="712" height="712" viewBox="0 0 712 712" fill="none" xmlns="http://www.w3.org/2000/svg">
<g clip-path="url(#clip0_337_19)">
<rect width="712" height="712" rx="356" fill="white"/>
<path fill-rule="evenodd" clip-rule="evenodd" d="M712 0H0V712H712V0ZM239.111 528.88C224.262 528.88 210.211 527.124 196.959 523.611C183.866 520.098 172.37 515.548 162.471 509.96C152.572 504.371 144.748 498.543 139 492.476L163.429 442.181C167.101 446.971 172.69 452.08 180.194 457.509C187.698 462.938 196.241 467.568 205.82 471.4C215.56 475.232 225.22 477.148 234.8 477.148C247.414 477.148 257.952 473.715 266.414 466.85C275.036 459.824 279.347 450.005 279.347 437.391C279.347 429.248 277.351 422.223 273.359 416.315C269.527 410.248 264.338 404.899 257.792 400.269C251.405 395.479 241.506 389.012 228.094 380.869C209.732 369.692 195.362 360.192 184.984 352.369C174.606 344.385 165.585 334.007 157.921 321.234C150.416 308.301 146.664 292.733 146.664 274.531C146.664 256.808 150.416 241.161 157.921 227.589C165.585 213.858 176.841 203.16 191.69 195.496C206.539 187.832 224.422 184 245.338 184C279.347 184 307.768 194.378 330.6 215.135L303.776 263.993C301.062 260.161 296.99 256.01 291.562 251.539C286.133 246.909 279.587 242.997 271.923 239.804C264.259 236.451 256.195 234.774 247.733 234.774C235.439 234.774 225.859 238.367 218.993 245.552C212.287 252.577 208.934 261.438 208.934 272.136C208.934 280.279 210.93 287.544 214.921 293.931C219.073 300.158 224.422 305.746 230.968 310.696C237.674 315.645 246.615 321.473 257.792 328.179C278.07 340.154 293.557 350.213 304.255 358.356C314.953 366.499 323.894 376.877 331.079 389.491C338.424 401.945 342.096 417.273 342.096 435.475C342.096 454.795 337.945 471.48 329.642 485.531C321.339 499.581 309.444 510.359 293.957 517.863C278.469 525.208 260.187 528.88 239.111 528.88ZM460.364 242.438V330.095H559.038V383.743H460.364V523.611H399.052V189.748H573.408V242.438H460.364Z" fill="black"/>
</g>
<defs>
<clipPath id="clip0_337_19">
<rect width="712" height="712" rx="356" fill="white"/>
</clipPath>
</defs>
</svg>
